{"title":"The.Amazing.Race.Asia.S04E09-LCP.avi","uid":5965512,"size":367298498,"categoryP":"video","categoryS":"tv_shows","magnet":"?xt=urn:btih:ef6d3e66bbd782c45ab73cf45c0ebceaa476311f&amp;dn=The.Amazing.Race.Asia.S04E09-LCP.avi&amp;tr=udp%3A%2F%2Ftracker.openbittorrent.com%3A80&amp;tr=udp%3A%2F%2Fopen.demonii.com%3A1337&amp;tr=udp%3A%2F%2Ftracker.coppersurfer.tk%3A6969&amp;tr=udp%3A%2F%2Fexodus.desync.com%3A6969","seeders":1,"leechers":0,"uploader":"LCP-1","files":1,"time":1290101166,"description":"Enjoy!\n\nVideo\nFormat                           : MPEG-4 Visual\nCodec ID                         : XVID\nDuration                         : 45mn 19s\nBit rate                         : 971 Kbps\nWidth                            : 624 pixels\nHeight                           : 352 pixels\nDisplay aspect ratio             : 16:9\nFrame rate                       : 25.000 fps\nBits/(Pixel*Frame)               : 0.177\nStream size                      : 315 MiB (90%)\n\nAudio\nFormat                           : MPEG Audio\nFormat profile                   : Layer 3\nMode                             : Joint stereo\nCodec ID/Hint                    : MP3\nDuration                         : 45mn 19s\nBit rate mode                    : Constant\nBit rate                         : 96.0 Kbps\nChannel(s)                       : 2 channels\nSampling rate                    : 48.0 KHz\nBit depth                        : 16 bits\nStream size                      : 31.1 MiB (9%)\n","torrent":{"xt":"urn:btih:ef6d3e66bbd782c45ab73cf45c0ebceaa476311f","amp;dn":"The.Amazing.Race.Asia.S04E09-LCP.avi","amp;tr":["udp%3A%2F%2Ftracker.openbittorrent.com%3A80","udp%3A%2F%2Fopen.demonii.com%3A1337","udp%3A%2F%2Ftracker.coppersurfer.tk%3A6969","udp%3A%2F%2Fexodus.desync.com%3A6969"],"infoHash":"ef6d3e66bbd782c45ab73cf45c0ebceaa476311f","infoHashBuffer":{"type":"Buffer","data":[239,109,62,102,187,215,130,196,90,183,60,244,92,14,188,234,164,118,49,31]},"announce":[],"urlList":[]}}